<?xml version="1.0" encoding="utf-8"?>
<!-- Generator: Adobe Illustrator 17.1.0, SVG Export Plug-In . SVG Version: 6.00 Build 0)  -->
<!DOCTYPE svg PUBLIC "-//W3C//DTD SVG 1.1//EN" "http://www.w3.org/Graphics/SVG/1.1/DTD/svg11.dtd">
<svg version="1.1" id="Layer_1" xmlns="http://www.w3.org/2000/svg" xmlns:xlink="http://www.w3.org/1999/xlink" x="0px" y="0px"
	 viewBox="0 0 12 12.2" enable-background="new 0 0 12 12.2" xml:space="preserve">
<g>
	<g>
		<g>
			<path fill="#3B2049" d="M1.7,4.6h1.9c0,0,0,0,0,0c0,0,0,0,0,0v5.6H1.7c0,0,0,0,0,0V4.6z"/>
		</g>
		<g>
			<path fill="#3B2049" d="M1.6,3.1C1.6,3.1,1.6,3,1.6,3.1c0-0.1,0-0.1,0-0.1V2.8c0,0,0,0,0,0c0-0.2,0.1-0.4,0.2-0.5
				C2,2,2.2,1.9,2.5,1.9c0,0,0.1,0,0.1,0h0.2c0,0,0.1,0,0.1,0c0.2,0,0.4,0.1,0.6,0.3c0.2,0.2,0.2,0.3,0.3,0.6c0,0.1,0,0.3,0,0.4
				C3.6,3.4,3.4,3.6,3.2,3.7C3.1,3.8,2.9,3.8,2.8,3.8c-0.2,0-0.3,0-0.5,0C1.9,3.7,1.7,3.4,1.6,3.1z"/>
		</g>
		<g>
			<path fill="#3B2049" d="M10.4,7v3.3c0,0,0,0,0,0H8.5c0,0,0,0,0,0V7.3c0-0.2,0-0.3,0-0.5c0-0.1-0.1-0.3-0.1-0.4
				C8.2,6.2,8.1,6.1,7.9,6C7.7,6,7.6,6,7.4,6C7.3,6,7.1,6.1,6.9,6.2C6.8,6.3,6.7,6.4,6.7,6.6C6.6,6.7,6.5,6.8,6.5,6.9
				c0,0.1,0,0.2,0,0.3v3.1c0,0,0,0,0,0H4.6c0,0,0,0,0,0c0-1.5,0-3,0-4.5c0-0.4,0-0.7,0-1.1V4.6h1.9v0.8c0,0,0,0,0,0
				C6.7,5.2,6.8,5,7,4.9c0.2-0.2,0.5-0.3,0.8-0.4c0.4-0.1,0.8,0,1.2,0.1c0.5,0.2,0.9,0.5,1.1,1c0.1,0.2,0.2,0.4,0.2,0.7
				C10.4,6.5,10.4,6.8,10.4,7z"/>
		</g>
	</g>
</g>
</svg>
