<?xml version="1.0" encoding="utf-8"?>
<!-- Generator: Adobe Illustrator 17.1.0, SVG Export Plug-In . SVG Version: 6.00 Build 0)  -->
<!DOCTYPE svg PUBLIC "-//W3C//DTD SVG 1.1//EN" "http://www.w3.org/Graphics/SVG/1.1/DTD/svg11.dtd">
<svg version="1.1" id="Layer_1" xmlns="http://www.w3.org/2000/svg" xmlns:xlink="http://www.w3.org/1999/xlink" x="0px" y="0px"
	 viewBox="0 0 12 12.2" enable-background="new 0 0 12 12.2" xml:space="preserve">
<path fill="#5C1D30" d="M10,4.6C10,5,10,5.4,9.9,5.7C9.8,6.1,9.6,6.3,9.5,6.5C9.3,6.7,9.1,6.9,8.9,7C8.6,7.2,8.4,7.3,8.1,7.3
	C7.9,7.4,7.6,7.4,7.3,7.5c0.3,0.2,0.4,0.6,0.4,1.1v1.6c0,0.1,0,0.2,0.1,0.2c0.1,0.1,0.2,0.1,0.3,0.1c-0.7,0.3-1.2,0.3-1.9,0.3
	c-0.6,0-1.3-0.1-1.8-0.3c-0.1,0-0.1,0-0.1,0c0.1,0,0.2,0,0.3-0.1c0.1-0.1,0.1-0.1,0.1-0.2V9.8c0-0.3,0-0.5,0-0.7l-0.2,0
	c-0.1,0-0.3,0-0.4,0c-0.2,0-0.3,0-0.5,0C3.5,9.1,3.3,9,3.2,8.9C3,8.7,2.9,8.6,2.8,8.4L2.8,8.2c0-0.1-0.1-0.2-0.2-0.4
	C2.4,7.7,2.3,7.6,2.2,7.5l-0.1,0c0,0-0.1-0.1-0.1-0.1C2,7.4,2,7.3,2,7.3c0,0,0-0.1,0-0.1c0,0,0.1,0,0.2,0l0.2,0
	c0.1,0,0.2,0.1,0.4,0.2C2.9,7.5,3,7.6,3.1,7.8C3.3,8,3.4,8.1,3.6,8.3c0.2,0.1,0.3,0.2,0.5,0.2c0.2,0,0.3,0,0.4,0
	c0.1,0,0.2-0.1,0.3-0.1c0-0.3,0.2-0.6,0.4-0.8c-0.3,0-0.5-0.1-0.8-0.1C4.2,7.3,4,7.2,3.7,7C3.5,6.9,3.3,6.7,3.1,6.5
	C2.9,6.3,2.8,6.1,2.7,5.7C2.6,5.4,2.5,5,2.5,4.6C2.5,4,2.7,3.4,3.1,3C3,2.5,3,2,3.2,1.4c0.1,0,0.4,0,0.7,0.1
	c0.3,0.1,0.5,0.2,0.6,0.3S4.7,2,4.8,2c0.5-0.1,1-0.2,1.5-0.2c0.5,0,1,0.1,1.5,0.2L8,1.9c0.2-0.1,0.4-0.2,0.7-0.3
	C9,1.4,9.2,1.4,9.4,1.4C9.6,2,9.6,2.5,9.4,3C9.8,3.4,10,4,10,4.6z"/>
</svg>
