<?xml version="1.0" encoding="utf-8"?>
<!-- Generator: Adobe Illustrator 17.1.0, SVG Export Plug-In . SVG Version: 6.00 Build 0)  -->
<!DOCTYPE svg PUBLIC "-//W3C//DTD SVG 1.1//EN" "http://www.w3.org/Graphics/SVG/1.1/DTD/svg11.dtd">
<svg version="1.1" id="Layer_1" xmlns="http://www.w3.org/2000/svg" xmlns:xlink="http://www.w3.org/1999/xlink" x="0px" y="0px"
	 viewBox="0 0 12 12.2" enable-background="new 0 0 12 12.2" xml:space="preserve">
<path fill="#D3B5B9" d="M10.1,10.5C10.1,10.5,10.1,10.4,10.1,10.5c0.3-0.6,0.6-1,0.9-1.5c0.2-0.3,0.2-0.7,0-1
	C10.5,7.2,10,6.4,9.6,5.7c-0.7-1.2-1.3-2.3-2-3.5C7.4,1.8,7.1,1.7,6.6,1.7c-0.5,0-1.1,0-1.6,0c0,0-0.1,0-0.2,0
	C6.6,4.6,8.3,7.6,10.1,10.5z M0.9,8.5C0.9,8.5,0.9,8.6,0.9,8.5c0.3,0.6,0.6,1.1,0.9,1.6c0.2,0.3,0.5,0.5,0.9,0.5c1.9,0,3.7,0,5.6,0
	c0.1,0,0.1,0,0.2,0c0-0.1-0.1-0.1-0.1-0.2C8,9.8,7.6,9.2,7.3,8.6C7.2,8.5,7.2,8.5,7,8.5c-2,0-4,0-6,0C1,8.5,1,8.5,0.9,8.5z M4,3.1
	C3.3,4.4,2.5,5.7,1.7,7c1.6,0,3.1,0,4.6,0C5.6,5.7,4.8,4.4,4,3.1z"/>
</svg>
