<?xml version="1.0" encoding="utf-8"?>
<!-- Generator: Adobe Illustrator 17.1.0, SVG Export Plug-In . SVG Version: 6.00 Build 0)  -->
<!DOCTYPE svg PUBLIC "-//W3C//DTD SVG 1.1//EN" "http://www.w3.org/Graphics/SVG/1.1/DTD/svg11.dtd">
<svg version="1.1" id="Layer_1" xmlns="http://www.w3.org/2000/svg" xmlns:xlink="http://www.w3.org/1999/xlink" x="0px" y="0px"
	 viewBox="0 0 12 12.2" enable-background="new 0 0 12 12.2" xml:space="preserve">
<path fill="#5C1D30" d="M6.1,6.6C5.9,6.1,5.6,5.8,5,5.7C5.5,5.4,5.7,5.3,5.8,5c0.4-0.8,0.1-1.9-0.7-2.3C4.7,2.4,4.3,2.4,3.9,2.4H0.1
	v7.3c0.1,0,0.1,0,0.2,0c1.2,0,2.5,0,3.7,0c0.2,0,0.3,0,0.5,0C5.3,9.4,5.9,9,6.1,8.1C6.3,7.6,6.3,7.1,6.1,6.6z M1.8,3.7
	c0.7,0,1.4,0,2.1,0c0.2,0,0.4,0.2,0.4,0.4c0.1,0.3,0.1,0.6,0,0.9C4.3,5.1,4.1,5.3,3.9,5.3c-0.7,0-1.4,0-2.1,0V3.7z M4.6,7.8
	C4.5,8.1,4.3,8.3,4,8.3c-0.7,0-1.5,0-2.2,0V6.4c0.7,0,1.5,0,2.2,0c0.3,0,0.5,0.2,0.6,0.5C4.7,7.2,4.7,7.5,4.6,7.8z M7.8,2.8v0.9h3
	V2.8H7.8z M10.1,8.5c-0.5,0.2-0.9,0.2-1.4,0C8.3,8.3,8,7.8,8.1,7.4h3.8c0-0.4,0-0.8-0.1-1.2c-0.2-1-0.7-1.7-1.7-1.9
	c-0.3-0.1-0.7-0.1-1-0.1C8.2,4.3,7.4,4.6,7,5.5C6.5,6.3,6.4,7.1,6.6,8c0.3,0.9,0.9,1.5,1.8,1.7c0.5,0.1,1.1,0.2,1.7,0
	c0.4-0.1,0.8-0.2,1.1-0.5c0.4-0.4,0.6-0.8,0.6-1.4h-1.3C10.5,8.2,10.3,8.4,10.1,8.5z M9.4,5.3c0.6,0,1.1,0.4,1.1,1.1H8.1
	C8.1,5.8,8.7,5.3,9.4,5.3z M10.1,8.5c-0.5,0.2-0.9,0.2-1.4,0C8.3,8.3,8,7.8,8.1,7.4h3.8c0-0.4,0-0.8-0.1-1.2c-0.2-1-0.7-1.7-1.7-1.9
	c-0.3-0.1-0.7-0.1-1-0.1C8.2,4.3,7.4,4.6,7,5.5C6.5,6.3,6.4,7.1,6.6,8c0.3,0.9,0.9,1.5,1.8,1.7c0.5,0.1,1.1,0.2,1.7,0
	c0.4-0.1,0.8-0.2,1.1-0.5c0.4-0.4,0.6-0.8,0.6-1.4h-1.3C10.5,8.2,10.3,8.4,10.1,8.5z M9.4,5.3c0.6,0,1.1,0.4,1.1,1.1H8.1
	C8.1,5.8,8.7,5.3,9.4,5.3z M10.7,2.8h-3v0.9h3V2.8z M5,5.7C5.5,5.4,5.7,5.3,5.8,5c0.4-0.8,0.1-1.9-0.7-2.3C4.7,2.4,4.3,2.4,3.9,2.4
	H0.1v7.3c0.1,0,0.1,0,0.2,0c1.2,0,2.5,0,3.7,0c0.2,0,0.3,0,0.5,0C5.3,9.4,5.9,9,6.1,8.1c0.1-0.5,0.1-1-0.1-1.5
	C5.9,6.1,5.6,5.8,5,5.7z M1.8,3.7c0.7,0,1.4,0,2.1,0c0.2,0,0.4,0.2,0.4,0.4c0.1,0.3,0.1,0.6,0,0.9C4.3,5.1,4.1,5.3,3.9,5.3
	c-0.7,0-1.4,0-2.1,0V3.7z M4.6,7.8C4.5,8.1,4.3,8.3,4,8.3c-0.7,0-1.5,0-2.2,0V6.4c0.7,0,1.5,0,2.2,0c0.3,0,0.5,0.2,0.6,0.5
	C4.7,7.2,4.7,7.5,4.6,7.8z M10.1,8.5c-0.5,0.2-0.9,0.2-1.4,0C8.3,8.3,8,7.8,8.1,7.4h3.8c0-0.4,0-0.8-0.1-1.2c-0.2-1-0.7-1.7-1.7-1.9
	c-0.3-0.1-0.7-0.1-1-0.1C8.2,4.3,7.4,4.6,7,5.5C6.5,6.3,6.4,7.1,6.6,8c0.3,0.9,0.9,1.5,1.8,1.7c0.5,0.1,1.1,0.2,1.7,0
	c0.4-0.1,0.8-0.2,1.1-0.5c0.4-0.4,0.6-0.8,0.6-1.4h-1.3C10.5,8.2,10.3,8.4,10.1,8.5z M9.4,5.3c0.6,0,1.1,0.4,1.1,1.1H8.1
	C8.1,5.8,8.7,5.3,9.4,5.3z M10.7,2.8h-3v0.9h3V2.8z M5,5.7C5.5,5.4,5.7,5.3,5.8,5c0.4-0.8,0.1-1.9-0.7-2.3C4.7,2.4,4.3,2.4,3.9,2.4
	H0.1v7.3c0.1,0,0.1,0,0.2,0c1.2,0,2.5,0,3.7,0c0.2,0,0.3,0,0.5,0C5.3,9.4,5.9,9,6.1,8.1c0.1-0.5,0.1-1-0.1-1.5
	C5.9,6.1,5.6,5.8,5,5.7z M1.8,3.7c0.7,0,1.4,0,2.1,0c0.2,0,0.4,0.2,0.4,0.4c0.1,0.3,0.1,0.6,0,0.9C4.3,5.1,4.1,5.3,3.9,5.3
	c-0.7,0-1.4,0-2.1,0V3.7z M4.6,7.8C4.5,8.1,4.3,8.3,4,8.3c-0.7,0-1.5,0-2.2,0V6.4c0.7,0,1.5,0,2.2,0c0.3,0,0.5,0.2,0.6,0.5
	C4.7,7.2,4.7,7.5,4.6,7.8z"/>
</svg>
